# xmcd
#
# Track frame offsets:
#	150
#	16360
#	30475
#	42699
#	58654
#	73245
#	90630
#	103272
#	119255
#	131282
#	144883
#	161693
#	177605
#	193949
#	211895
#	226281
#	240668
#	256551
#	268602
#	282055
#	296125
#
# Disc length: 4159 seconds
#
# Revision: 0
# Processed by: cddbd v1.5.2PL0 Copyright (c) Steve Scherf et al.
# Submitted via: EZCDAudioConverter 7.1.0.1
#
DISCID=38103d15
DTITLE=Nu Country Traxx Volume 228 US
DYEAR=2018
DGENRE=country
TTITLE0=Keith Urban ft. Julia Michaels - Coming Home
TTITLE1=Jake Owen - I Was Jack (You Were Diane)
TTITLE2=Rodney Atkins - Caught Up In The Country
TTITLE3=Russell Dickerson - Blue Tacoma
TTITLE4=Cale Dodds - Take You Back
TTITLE5=Scotty McCreery - This Is It
TTITLE6=Old Dominion - Hotel Key
TTITLE7=Mitchell Tenpenny - Drunk Me
TTITLE8=Brian Lee Bender - I'm Here To Party With You
TTITLE9=Craig Campbell - See You Try
TTITLE10=Frankie Justin - Crazy
TTITLE11=Jess Moskaluke - Past The Past
TTITLE12=Emerson Drive - The Road
TTITLE13=Dallas Remington - Never Turned Around
TTITLE14=Dave McElroy - Nowhere With You
TTITLE15=Melissa Mickelson - Hold On
TTITLE16=Wes Hayden ft. Andy Griggs - There's Always Now
TTITLE17=Amy Jack - Jack of All Trades
TTITLE18=Dan Davidson - Let's Go There
TTITLE19=Genevieve Fisher - Between You And Me
TTITLE20=Ben Klick - Middle Of Nowhere
EXTD=
EXTT0=
EXTT1=
EXTT2=
EXTT3=
EXTT4=
EXTT5=
EXTT6=
EXTT7=
EXTT8=
EXTT9=
EXTT10=
EXTT11=
EXTT12=
EXTT13=
EXTT14=
EXTT15=
EXTT16=
EXTT17=
EXTT18=
EXTT19=
EXTT20=
PLAYORDER=
